<mxfile host="app.diagrams.net" modified="2022-10-11T03:02:53.335Z" agent="5.0 (Macintosh; Intel Mac OS X 10_15_7) AppleWebKit/537.36 (KHTML, like Gecko) Chrome/105.0.0.0 Safari/537.36" etag="5r8fjFXToy6SQilVIhm5" version="20.4.0" type="github">
  <diagram name="Page-1" id="2c0d36ab-eaac-3732-788b-9136903baeff">
    <mxGraphModel dx="1235" dy="746" grid="1" gridSize="10" guides="1" tooltips="1" connect="1" arrows="1" fold="1" page="1" pageScale="1.5" pageWidth="1169" pageHeight="827" background="none" math="0" shadow="0">
      <root>
        <mxCell id="0" />
        <mxCell id="1" parent="0" />
        <mxCell id="111" value="Central government &#xa;decides everything" style="fillColor=#D9EAD3;strokeColor=none" parent="1" vertex="1">
          <mxGeometry x="570" y="384.5" width="140" height="67.25" as="geometry" />
        </mxCell>
        <mxCell id="108" value="An economy in which &#xa;tradition along determines&#xa;the nature of &#xa;economic activityÂ " style="fillColor=#12AAB5;strokeColor=none;opacity=30;" parent="1" vertex="1">
          <mxGeometry x="570" y="300" width="140" height="64.5" as="geometry" />
        </mxCell>
        <mxCell id="pm9kI_KTFTprWazmq4Pj-146" style="edgeStyle=orthogonalEdgeStyle;rounded=0;orthogonalLoop=1;jettySize=auto;html=1;exitX=0.5;exitY=1;exitDx=0;exitDy=0;entryX=0;entryY=0.5;entryDx=0;entryDy=0;strokeWidth=2;fontSize=20;" parent="1" source="13" target="pm9kI_KTFTprWazmq4Pj-124" edge="1">
          <mxGeometry relative="1" as="geometry" />
        </mxCell>
        <mxCell id="13" value="Econ System" style="rounded=1;fillColor=#23445D;gradientColor=none;strokeColor=none;fontColor=#FFFFFF;fontStyle=1;fontFamily=Tahoma;fontSize=20;" parent="1" vertex="1">
          <mxGeometry x="650" y="180" width="190" height="80" as="geometry" />
        </mxCell>
        <mxCell id="pm9kI_KTFTprWazmq4Pj-128" style="edgeStyle=orthogonalEdgeStyle;rounded=0;orthogonalLoop=1;jettySize=auto;html=1;entryX=0.994;entryY=0.415;entryDx=0;entryDy=0;entryPerimeter=0;fontSize=20;strokeWidth=2;" parent="1" source="16" target="108" edge="1">
          <mxGeometry relative="1" as="geometry" />
        </mxCell>
        <mxCell id="16" value="Traditional Economy" style="rounded=1;fillColor=#23445D;gradientColor=none;strokeColor=none;fontColor=#FFFFFF;fontStyle=1;fontFamily=Tahoma;fontSize=14" parent="1" vertex="1">
          <mxGeometry x="780" y="294.5" width="150" height="65.5" as="geometry" />
        </mxCell>
        <mxCell id="64" value="" style="edgeStyle=elbowEdgeStyle;elbow=horizontal;strokeWidth=2;rounded=0" parent="1" source="13" target="16" edge="1">
          <mxGeometry x="520" y="-20" width="100" height="100" as="geometry">
            <mxPoint x="520" y="80" as="sourcePoint" />
            <mxPoint x="620" y="-20" as="targetPoint" />
            <Array as="points">
              <mxPoint x="745" y="280" />
            </Array>
          </mxGeometry>
        </mxCell>
        <mxCell id="65" value="" style="edgeStyle=elbowEdgeStyle;elbow=horizontal;strokeWidth=2;rounded=0" parent="1" source="13" target="pm9kI_KTFTprWazmq4Pj-123" edge="1">
          <mxGeometry x="520" y="-20" width="100" height="100" as="geometry">
            <mxPoint x="520" y="80" as="sourcePoint" />
            <mxPoint x="780" y="420" as="targetPoint" />
            <Array as="points">
              <mxPoint x="745" y="320" />
            </Array>
          </mxGeometry>
        </mxCell>
        <mxCell id="67" value="" style="edgeStyle=elbowEdgeStyle;elbow=horizontal;strokeWidth=2;rounded=0" parent="1" source="13" edge="1">
          <mxGeometry x="520" y="-20" width="100" height="100" as="geometry">
            <mxPoint x="520" y="80" as="sourcePoint" />
            <mxPoint x="780" y="599.9999999999999" as="targetPoint" />
            <Array as="points">
              <mxPoint x="745" y="420" />
            </Array>
          </mxGeometry>
        </mxCell>
        <mxCell id="pm9kI_KTFTprWazmq4Pj-132" style="edgeStyle=orthogonalEdgeStyle;rounded=0;orthogonalLoop=1;jettySize=auto;html=1;exitX=0;exitY=0.5;exitDx=0;exitDy=0;entryX=1;entryY=0.5;entryDx=0;entryDy=0;strokeWidth=2;fontSize=20;" parent="1" source="pm9kI_KTFTprWazmq4Pj-123" target="111" edge="1">
          <mxGeometry relative="1" as="geometry" />
        </mxCell>
        <mxCell id="pm9kI_KTFTprWazmq4Pj-123" value="Command Economy" style="rounded=1;fillColor=#23445D;gradientColor=none;strokeColor=none;fontColor=#FFFFFF;fontStyle=1;fontFamily=Tahoma;fontSize=14" parent="1" vertex="1">
          <mxGeometry x="780" y="384.5" width="150" height="65.5" as="geometry" />
        </mxCell>
        <mxCell id="pm9kI_KTFTprWazmq4Pj-124" value="Market Economy" style="rounded=1;fillColor=#23445D;gradientColor=none;strokeColor=none;fontColor=#FFFFFF;fontStyle=1;fontFamily=Tahoma;fontSize=14" parent="1" vertex="1">
          <mxGeometry x="780" y="484.5" width="150" height="65.5" as="geometry" />
        </mxCell>
        <mxCell id="pm9kI_KTFTprWazmq4Pj-125" value="Mixed Economy" style="rounded=1;fillColor=#23445D;gradientColor=none;strokeColor=none;fontColor=#FFFFFF;fontStyle=1;fontFamily=Tahoma;fontSize=14" parent="1" vertex="1">
          <mxGeometry x="780" y="574.5" width="150" height="65.5" as="geometry" />
        </mxCell>
        <mxCell id="pm9kI_KTFTprWazmq4Pj-143" style="edgeStyle=orthogonalEdgeStyle;rounded=0;orthogonalLoop=1;jettySize=auto;html=1;exitX=0;exitY=0.5;exitDx=0;exitDy=0;entryX=1;entryY=0.5;entryDx=0;entryDy=0;strokeWidth=2;fontSize=20;" parent="1" source="pm9kI_KTFTprWazmq4Pj-134" target="pm9kI_KTFTprWazmq4Pj-124" edge="1">
          <mxGeometry relative="1" as="geometry" />
        </mxCell>
        <mxCell id="pm9kI_KTFTprWazmq4Pj-134" value="private ownership" style="rounded=1;fillColor=#23445D;gradientColor=none;strokeColor=none;fontColor=#FFFFFF;fontStyle=1;fontFamily=Tahoma;fontSize=14" parent="1" vertex="1">
          <mxGeometry x="972" y="410" width="130" height="60" as="geometry" />
        </mxCell>
        <mxCell id="pm9kI_KTFTprWazmq4Pj-144" style="edgeStyle=orthogonalEdgeStyle;rounded=0;orthogonalLoop=1;jettySize=auto;html=1;exitX=0;exitY=0.5;exitDx=0;exitDy=0;strokeWidth=2;fontSize=20;" parent="1" source="pm9kI_KTFTprWazmq4Pj-136" edge="1">
          <mxGeometry relative="1" as="geometry">
            <mxPoint x="930" y="517.5" as="targetPoint" />
          </mxGeometry>
        </mxCell>
        <mxCell id="pm9kI_KTFTprWazmq4Pj-136" value="consumer &#xa;sovereignty" style="rounded=1;fillColor=#23445D;gradientColor=none;strokeColor=none;fontColor=#FFFFFF;fontStyle=1;fontFamily=Tahoma;fontSize=14" parent="1" vertex="1">
          <mxGeometry x="972" y="490" width="128" height="55" as="geometry" />
        </mxCell>
        <mxCell id="pm9kI_KTFTprWazmq4Pj-145" style="edgeStyle=orthogonalEdgeStyle;rounded=0;orthogonalLoop=1;jettySize=auto;html=1;exitX=0;exitY=0.5;exitDx=0;exitDy=0;entryX=1;entryY=0.5;entryDx=0;entryDy=0;strokeWidth=2;fontSize=20;" parent="1" source="pm9kI_KTFTprWazmq4Pj-137" target="pm9kI_KTFTprWazmq4Pj-124" edge="1">
          <mxGeometry relative="1" as="geometry" />
        </mxCell>
        <mxCell id="pm9kI_KTFTprWazmq4Pj-137" value="free enterprise" style="rounded=1;fillColor=#23445D;gradientColor=none;strokeColor=none;fontColor=#FFFFFF;fontStyle=1;fontFamily=Tahoma;fontSize=14" parent="1" vertex="1">
          <mxGeometry x="972" y="564.5" width="130" height="60" as="geometry" />
        </mxCell>
        <mxCell id="pm9kI_KTFTprWazmq4Pj-147" value="Consumers decide what to produce" style="text;html=1;align=center;verticalAlign=middle;resizable=0;points=[];autosize=1;strokeColor=none;fillColor=none;fontSize=20;" parent="1" vertex="1">
          <mxGeometry x="1120" y="497.5" width="340" height="40" as="geometry" />
        </mxCell>
        <mxCell id="pm9kI_KTFTprWazmq4Pj-148" value="The freedom to start a new business for profits&amp;nbsp;" style="text;html=1;align=center;verticalAlign=middle;resizable=0;points=[];autosize=1;strokeColor=none;fillColor=none;fontSize=20;" parent="1" vertex="1">
          <mxGeometry x="1120" y="574.5" width="440" height="40" as="geometry" />
        </mxCell>
      </root>
    </mxGraphModel>
  </diagram>
</mxfile>
